<svg width="25" height="25" viewBox="0 0 25 25" fill="none" xmlns="http://www.w3.org/2000/svg">
<path fill-rule="evenodd" clip-rule="evenodd" d="M13.0419 16.0775C11.7097 15.877 10.3479 16.0652 9.12002 16.6195C7.89211 17.1737 6.85024 18.0706 6.11943 19.2023C5.38862 20.3341 4.99993 21.6527 5 22.9999C5.00003 23.5522 4.55234 24 4.00005 24C3.44777 24 3.00003 23.5523 3 23.0001C2.99991 21.2679 3.49965 19.5726 4.43926 18.1174C5.37888 16.6623 6.71843 15.5092 8.29717 14.7966C9.87592 14.0839 11.6268 13.842 13.3396 14.0998C15.0524 14.3576 16.6545 15.1042 17.9535 16.2501C18.3677 16.6154 18.4073 17.2473 18.0419 17.6615C17.6766 18.0757 17.0447 18.1153 16.6305 17.7499C15.6202 16.8588 14.3741 16.2781 13.0419 16.0775Z" fill="#1F2937"/>
<path fill-rule="evenodd" clip-rule="evenodd" d="M12 6C9.79086 6 8 7.79086 8 10C8 12.2091 9.79086 14 12 14C14.2091 14 16 12.2091 16 10C16 7.79086 14.2091 6 12 6ZM6 10C6 6.68629 8.68629 4 12 4C15.3137 4 18 6.68629 18 10C18 13.3137 15.3137 16 12 16C8.68629 16 6 13.3137 6 10Z" fill="#1F2937"/>
<path fill-rule="evenodd" clip-rule="evenodd" d="M21 17C21.5523 17 22 17.4477 22 18V20H24C24.5523 20 25 20.4477 25 21C25 21.5523 24.5523 22 24 22H22V24C22 24.5523 21.5523 25 21 25C20.4477 25 20 24.5523 20 24V22H18C17.4477 22 17 21.5523 17 21C17 20.4477 17.4477 20 18 20H20V18C20 17.4477 20.4477 17 21 17Z" fill="#1F2937"/>
</svg>
