<svg width="25" height="24" viewBox="0 0 25 24" fill="none" xmlns="http://www.w3.org/2000/svg">
<path fill-rule="evenodd" clip-rule="evenodd" d="M5.63604 16.636C7.32387 14.9482 9.61305 14 12 14C14.3869 14 16.6761 14.9482 18.364 16.636C20.0518 18.3239 21 20.6131 21 23C21 23.5523 20.5523 24 20 24C19.4477 24 19 23.5523 19 23C19 21.1435 18.2625 19.363 16.9497 18.0503C15.637 16.7375 13.8565 16 12 16C10.1435 16 8.36301 16.7375 7.05025 18.0503C5.7375 19.363 5 21.1435 5 23C5 23.5523 4.55228 24 4 24C3.44772 24 3 23.5523 3 23C3 20.6131 3.94821 18.3239 5.63604 16.636Z" fill="#009188"/>
<path fill-rule="evenodd" clip-rule="evenodd" d="M12 6C9.79086 6 8 7.79086 8 10C8 12.2091 9.79086 14 12 14C14.2091 14 16 12.2091 16 10C16 7.79086 14.2091 6 12 6ZM6 10C6 6.68629 8.68629 4 12 4C15.3137 4 18 6.68629 18 10C18 13.3137 15.3137 16 12 16C8.68629 16 6 13.3137 6 10Z" fill="#009188"/>
<path fill-rule="evenodd" clip-rule="evenodd" d="M18.6899 5.18987C18.9716 4.71485 19.5851 4.55817 20.0601 4.8399C20.9084 5.34302 21.6196 6.04748 22.1307 6.89094C22.6418 7.73441 22.9372 8.69086 22.9906 9.67566C23.0439 10.6605 22.8538 11.6432 22.4368 12.537C22.193 13.0597 21.876 13.5425 21.4971 13.9717C23.3686 15.7948 25 18.7784 25 22C25 22.5523 24.5523 23 24 23C23.4477 23 23 22.5523 23 22C23 18.9892 21.186 16.1395 19.4 14.8C19.1482 14.6112 19 14.3148 19 14.0001C19 13.6854 19.1481 13.389 19.3999 13.2001C19.9258 12.8055 20.3464 12.2874 20.6243 11.6915C20.9023 11.0957 21.0291 10.4405 20.9935 9.78394C20.9579 9.1274 20.761 8.48977 20.4202 7.92746C20.0795 7.36515 19.6054 6.89551 19.0399 6.5601C18.5649 6.27836 18.4082 5.66489 18.6899 5.18987Z" fill="#009188"/>
</svg>
