<svg width="20" height="20" viewBox="0 0 20 20" fill="none" xmlns="http://www.w3.org/2000/svg">
<path fill-rule="evenodd" clip-rule="evenodd" d="M9.59087 2.80706C9.83161 2.61982 10.1687 2.61982 10.4095 2.80706L16.4095 7.47372C16.5718 7.60003 16.6668 7.79423 16.6668 7.99996V15.3333C16.6668 15.8637 16.4561 16.3724 16.081 16.7475C15.706 17.1226 15.1973 17.3333 14.6668 17.3333H5.3335C4.80306 17.3333 4.29436 17.1226 3.91928 16.7475C3.54421 16.3724 3.3335 15.8637 3.3335 15.3333V7.99996C3.3335 7.79423 3.42848 7.60003 3.59087 7.47372L9.59087 2.80706ZM4.66683 8.32601V15.3333C4.66683 15.5101 4.73707 15.6797 4.86209 15.8047C4.98712 15.9297 5.15669 16 5.3335 16H14.6668C14.8436 16 15.0132 15.9297 15.1382 15.8047C15.2633 15.6797 15.3335 15.5101 15.3335 15.3333V8.32601L10.0002 4.17787L4.66683 8.32601Z" fill="#1F2937"/>
<path fill-rule="evenodd" clip-rule="evenodd" d="M7.3335 9.99996C7.3335 9.63177 7.63197 9.33329 8.00016 9.33329H12.0002C12.3684 9.33329 12.6668 9.63177 12.6668 9.99996V16.6666C12.6668 17.0348 12.3684 17.3333 12.0002 17.3333C11.632 17.3333 11.3335 17.0348 11.3335 16.6666V10.6666H8.66683V16.6666C8.66683 17.0348 8.36835 17.3333 8.00016 17.3333C7.63197 17.3333 7.3335 17.0348 7.3335 16.6666V9.99996Z" fill="#1F2937"/>
</svg>
