<svg width="32" height="33" viewBox="0 0 32 33" fill="none" xmlns="http://www.w3.org/2000/svg">
<path fill-rule="evenodd" clip-rule="evenodd" d="M4.7998 8.50002C4.7998 8.07568 4.96838 7.66871 5.26843 7.36865C5.56849 7.0686 5.97546 6.90002 6.3998 6.90002H25.5998C26.0242 6.90002 26.4311 7.0686 26.7312 7.36865C27.0312 7.66871 27.1998 8.07568 27.1998 8.50002C27.1998 8.92437 27.0312 9.33134 26.7312 9.6314C26.4311 9.93145 26.0242 10.1 25.5998 10.1H6.3998C5.97546 10.1 5.56849 9.93145 5.26843 9.6314C4.96838 9.33134 4.7998 8.92437 4.7998 8.50002ZM4.7998 16.5C4.7998 16.0757 4.96838 15.6687 5.26843 15.3687C5.56849 15.0686 5.97546 14.9 6.3998 14.9H25.5998C26.0242 14.9 26.4311 15.0686 26.7312 15.3687C27.0312 15.6687 27.1998 16.0757 27.1998 16.5C27.1998 16.9244 27.0312 17.3313 26.7312 17.6314C26.4311 17.9315 26.0242 18.1 25.5998 18.1H6.3998C5.97546 18.1 5.56849 17.9315 5.26843 17.6314C4.96838 17.3313 4.7998 16.9244 4.7998 16.5ZM4.7998 24.5C4.7998 24.0757 4.96838 23.6687 5.26843 23.3687C5.56849 23.0686 5.97546 22.9 6.3998 22.9H15.9998C16.4242 22.9 16.8311 23.0686 17.1312 23.3687C17.4312 23.6687 17.5998 24.0757 17.5998 24.5C17.5998 24.9244 17.4312 25.3313 17.1312 25.6314C16.8311 25.9315 16.4242 26.1 15.9998 26.1H6.3998C5.97546 26.1 5.56849 25.9315 5.26843 25.6314C4.96838 25.3313 4.7998 24.9244 4.7998 24.5Z" fill="#6B7280"/>
</svg>
