<svg width="14" height="15" viewBox="0 0 14 15" fill="none" xmlns="http://www.w3.org/2000/svg">
<path fill-rule="evenodd" clip-rule="evenodd" d="M6.99967 2.83337C7.32184 2.83337 7.58301 3.09454 7.58301 3.41671V6.91671H11.083C11.4052 6.91671 11.6663 7.17788 11.6663 7.50004C11.6663 7.82221 11.4052 8.08337 11.083 8.08337H7.58301V11.5834C7.58301 11.9055 7.32184 12.1667 6.99967 12.1667C6.67751 12.1667 6.41634 11.9055 6.41634 11.5834V8.08337H2.91634C2.59418 8.08337 2.33301 7.82221 2.33301 7.50004C2.33301 7.17788 2.59418 6.91671 2.91634 6.91671H6.41634V3.41671C6.41634 3.09454 6.67751 2.83337 6.99967 2.83337Z" fill="white"/>
</svg>
